<?xml version="1.0" encoding="UTF-8" standalone="no"?>
<!-- Created with Inkscape (http://www.inkscape.org/) -->

<svg
   width="125.00281mm"
   height="146.52223mm"
   viewBox="0 0 125.00281 146.52223"
   version="1.1"
   id="svg5"
   sodipodi:docname="favicon3.svg"
   inkscape:version="1.1.2 (0a00cf5339, 2022-02-04)"
   xmlns:inkscape="http://www.inkscape.org/namespaces/inkscape"
   xmlns:sodipodi="http://sodipodi.sourceforge.net/DTD/sodipodi-0.dtd"
   xmlns="http://www.w3.org/2000/svg"
   xmlns:svg="http://www.w3.org/2000/svg">
  <sodipodi:namedview
     id="namedview6"
     pagecolor="#ffffff"
     bordercolor="#666666"
     borderopacity="1.0"
     inkscape:pageshadow="2"
     inkscape:pageopacity="0.0"
     inkscape:pagecheckerboard="0"
     inkscape:document-units="mm"
     showgrid="false"
     fit-margin-top="0"
     fit-margin-left="0"
     fit-margin-right="0"
     fit-margin-bottom="0"
     inkscape:zoom="1.6206682"
     inkscape:cx="236.01376"
     inkscape:cy="276.73771"
     inkscape:window-width="1920"
     inkscape:window-height="1130"
     inkscape:window-x="1200"
     inkscape:window-y="396"
     inkscape:window-maximized="1"
     inkscape:current-layer="svg5" />
  <defs
     id="defs2" />
  <g
     id="layer1"
     transform="translate(-24.736289,-26.140852)"
     style="fill:#005c7f;fill-opacity:1;stroke:#005c7f;stroke-width:4;stroke-miterlimit:4;stroke-dasharray:none;stroke-opacity:1">
    <path
       style="fill:#005c7f;fill-opacity:1;stroke:#005c7f;stroke-width:4;stroke-miterlimit:4;stroke-dasharray:none;stroke-opacity:1"
       d="m 32.733511,168.01725 v -2.64584 H 50.548789 68.364067 V 150.37836 135.3853 l -17.903472,-1.2e-4 -17.903473,-1.2e-4 v 14.90498 14.90498 l -2.910416,0.10246 -2.910417,0.10246 V 147.5704 129.74085 H 50.3724 74.00851 v 20.46112 20.46111 H 53.371011 32.733511 Z M 80.71129,150.20738 v -20.45571 l 10.14236,-0.0936 10.14236,-0.0936 0.0917,-16.49237 0.0917,-16.492355 h 23.27984 23.27985 v 37.041665 37.04167 H 114.22521 80.71132 Z m 61.03056,-16.40958 v -31.57361 h -17.6455 -17.64549 l 0.0204,16.49236 0.0204,16.49236 -10.06795,0.0936 -10.06794,0.0936 v 14.98765 14.98764 h 27.69306 27.69305 V 133.7978 Z M 26.736289,104.87002 V 84.938075 H 57.251567 87.76684 v 2.64584 2.64583 h 2.82223 2.82222 v 17.286105 17.28611 h -33.337501 -33.3375 z m 61.030551,0 V 90.582525 H 60.073789 32.380733 v 14.287495 14.2875 H 60.073789 87.76684 Z M 77.44809,81.496335 50.019622,81.405935 v -2.64367 -2.64367 h 31.573608 31.57362 v -20.96651 c 0,-19.665712 0.0383,-20.977449 0.61736,-21.142911 0.33954,-0.09702 1.59804,-0.16842 2.79666,-0.158659 l 2.1793,0.01775 0.13755,2.868913 c 0.0757,1.577903 0.12684,11.044539 0.11375,21.036967 l -0.0238,18.16806 -2.91042,0.10246 -2.91041,0.10246 v 2.72737 2.72737 l -4.14514,-0.008 c -2.27983,-0.004 -16.48795,-0.0483 -31.57361,-0.098 z m -33.340275,-26.44186 0.09097,-21.092789 h 2.822222 2.822222 v 20.990279 20.99028 l -2.913196,0.10251 -2.9132,0.1025 z m 5.911807,-24.0914 v -2.822223 h 31.573608 31.57362 v 2.822223 2.822222 H 81.59323 50.019622 Z"
       id="path1134" />
  </g>
</svg>
